<?xml version="1.0" standalone="no"?><!DOCTYPE svg PUBLIC "-//W3C//DTD SVG 1.1//EN" "http://www.w3.org/Graphics/SVG/1.1/DTD/svg11.dtd"><svg t="1725503847200" class="icon" viewBox="0 0 1163 1024" version="1.1" xmlns="http://www.w3.org/2000/svg" p-id="17228" xmlns:xlink="http://www.w3.org/1999/xlink" width="54.515625" height="48"><path d="M670.952727 1017.483636c133.469091 0 266.938182 0.698182 400.407273 0 75.869091 0 114.618182-66.210909 78.778182-132.538181-3.607273-6.4-7.214545-12.218182-10.938182-18.734546-157.556364-269.963636-315.112727-539.927273-473.367273-810.007273-43.752727-75.52-119.621818-74.821818-164.189091 1.512728-106.472727 181.410909-212.945455 362.123636-318.021818 542.836363C122.996364 706.443636 55.970909 809.425455 1.978182 918.807273-10.472727 986.414545 37.003636 1018.181818 113.570909 1018.181818c0 0 371.316364-0.698182 557.381818-0.698182z" fill="#FFF700" p-id="17229"></path><path d="M1064.343273 999.912727H107.950545c-6.632727 0-13.847273-1.396364-21.178181-2.210909-59.810909-5.003636-84.596364-53.992727-53.294546-107.985454 93.44-160.581818 187.461818-321.047273 280.901818-481.629091 65.629091-113.105455 132.072727-226.094545 197.701819-338.385455 40.145455-68.421818 99.141818-68.421818 138.58909-0.814545 159.069091 271.476364 317.323636 542.254545 475.578182 813.614545 32.116364 54.807273 19.781818 95.069091-34.210909 114.501818-0.349091-0.116364-0.581818-0.349091-0.930909-0.465454-8.96 1.396364-17.92 3.374545-26.763636 3.374545zM582.830545 60.276364c-153.250909 262.050909-361.658182 623.825455-513.396363 883.781818h1026.792727c-152.436364-260.654545-360.261818-622.429091-513.396364-883.781818z" fill="#090903" p-id="17230"></path><path d="M353.035636 850.397091c-1.396364-0.232727-2.792727-0.349091-4.189091-0.465455 0 0.116364-0.116364 0.232727-0.116363 0.465455 0.698182 6.4 0 13.614545 9.425454 15.825454 0.814545 0.698182 1.512727 0.698182 2.210909 0 2.909091-3.607273 1.512727 6.4-3.607272 1.396364-18.850909-5.701818-38.981818-5.818182-59.461818-5.818182h-2.909091c-13.346909 5.224727-26.926545 3.037091-40.622546 0.826182l-0.104727-0.011636c-5.818182-0.930909-11.52-1.861818-17.221818-2.210909-1.512727-0.698182-1.512727-2.094545-0.814546-3.607273-9.890909 0.232727-21.061818 2.094545-19.665454 13.730909 1.163636 9.890909 9.890909 8.494545 17.454545 7.214545 2.443636-0.349091 4.654545-0.814545 6.632727-0.814545h710.516364c3.025455 0 6.167273 0.349091 9.309091 0.581818 8.727273 0.698182 17.687273 1.396364 25.716364-3.374545 0-1.047273 0.116364-2.094545 0.116363-3.025455 0.232727-1.745455 0.349091-3.258182-0.116363-4.189091-65.629091-111.592727-130.56-223.883636-196.189091-335.592727-5.934545-9.309091-10.938182-17.92-24.901818-17.92-21.061818 0-22.574545-10.123636-8.727273-22.341818 6.632727-5.934545 4.189091-9.425455 1.512727-13.265455-0.232727-0.349091-0.465455-0.814545-0.814545-1.163636-16.756364-29.44-34.210909-58.996364-53.178182-92.858182-26.996364 38.167273-23.389091 82.036364-43.054546 117.410909-0.500364 0 0.872727 0.849455 2.443637 1.815273l0.814545 0.512c0.698182 0.465455 1.28 0.814545 1.861818 1.163636 8.727273-7.098182 20.363636-12.218182 28.392728-2.792727 4.305455 5.585455-4.654545 10.589091-12.567273 10.123636-16.058182 2.792727-32.698182 6.4-49.454546 9.309091-3.607273 5.701818-6.516364 11.52-10.123636 16.523637-5.12 8.610909-13.149091 15.127273-13.847273 25.949091 0.698182 2.094545 0.698182 5.003636 1.396364 7.214545-42.356364 42.472727-62.72 98.56-97.745455 146.152727-0.698182 2.909091-1.28 5.701818-1.978181 8.610909 1.396364-1.745455 2.909091-3.490909 4.887272-5.003636 5.12 15.825455 0.698182 27.345455-14.661818 34.56 1.396364-3.84 2.210909-7.68 3.141818-11.52-2.094545 3.374545-4.654545 6.516364-8.145454 9.309091-9.541818 10.123636-21.178182 18.036364-30.603637 28.16-2.327273 2.676364-4.538182 5.469091-6.865454 8.145454 3.141818-1.28 6.865455-1.861818 11.170909-1.745454-9.541818 11.52-16.756364 27.345455-36.421818 27.345454-2.094545 1.396364-5.236364 0.465455-6.632727 0 1.512727 8.145455-3.374545 11.636364-8.494546 15.243637-2.210909 1.512727-4.305455 3.025455-6.050909 5.003636 0 24.878545-9.995636 19.083636-20.224 13.160727l-0.023273-0.011636c-3.025455-1.745455-6.167273-3.607273-8.96-4.538182-9.309091 0-18.501818 0.698182-28.509091 0.698182v5.818182z m375.04-345.6c-1.512727-5.12-5.12-6.516364-10.24-7.214546-5.12 0-5.818182 2.792727-6.516363 6.4-0.698182 5.818182 2.210909 8.727273 8.029091 9.425455 0.698182-0.349091 1.629091-0.581818 2.56-0.814545 3.490909-0.698182 7.330909-1.629091 6.167272-7.796364z m-160.814545 47.243636c-10.938182 0.465455-21.992727 0.814545-31.767273-7.68 11.636364-23.738182 41.541818-22.341818 59.810909-36.654545 3.607273-3.025455 3.956364 0.349091 4.421818 4.887273 0.093091 1.047273 0.116364 2.001455 0.116364 2.90909 0.069818 3.805091 0.116364 6.237091 5.585455 6.516364l2.210909 4.305455c4.072727 1.978182 8.843636 4.654545 13.498182 6.749091-1.512727 0.232727-3.025455 0.465455-4.654546 0.581818l-0.151273 0.011636c-7.749818 0.814545-15.290182 1.594182-10.088727 16.395636 1.861818 5.818182-2.327273 5.818182-6.632727 5.818182-2.094545 0-4.305455 0-5.818182 0.698182-8.029091-5.236364-17.210182-4.887273-26.507636-4.538182h-0.023273z m-121.483636 234.24c-14.661818 6.4-22.690909 21.527273-37.236364 28.043637h-7.330909c-4.305455 9.309091-17.454545 11.52-20.363637 23.04-5.934545 3.607273-12.450909 2.210909-18.967272 0.698181-11.752727 0.698182-23.389091 0-34.327273 1.512728-8.029091 4.305455-15.36 8.610909-24.087273 10.705454-10.938182 2.443636-21.876364 2.327273-32.814545 2.210909h-6.516364c-4.375273-2.013091-9.611636-1.012364-14.882909 0l-0.593454 0.116364c-9.425455 1.978182-18.850909 3.956364-22.458182-11.636364 24.785455-29.556364 47.36-62.603636 89.716363-71.330909 2.094545 1.512727 0.698182 5.818182 2.909091 6.516364 2.210909 0 0.698182-4.305455 2.909091-5.701818 24.785455-30.952727 59.810909-51.2 87.505455-79.243637 5.818182-7.214545 10.24-15.127273 17.570909-20.829091l2.094545-2.443636c0.465455 1.047273 0.814545 1.978182 1.163637 3.025455 2.792727 6.749091 5.469091 13.498182 3.258181 20.945454 7.214545-3.84 13.847273-7.796364 20.48-11.636363 0.465455-0.232727 0.930909-0.349091 1.396364-0.581819 12.450909-6.4 21.178182-14.429091 15.36-29.44v-0.116363c11.636364-7.912727 23.272727-15.127273 35.025455-22.225455h-0.232728c-13.032727 4.305455-25.367273 12.916364-39.912727 12.916364-3.723636-1.512727-6.632727-2.909091-8.727273-5.818182-0.116364-0.116364-0.116364-0.349091-0.232727-0.465455l-0.465454-1.163636c-3.490909-8.029091-12.916364-10.938182-19.781819-17.105454 58.065455-25.018182 88.669091-30.603636 96.116364-0.581819 0.698182-1.978182 1.512727-3.723636 2.327273-5.12 12.450909-19.432727 26.298182-35.956364 50.385454-41.774545-26.996364 52.596364-54.690909 105.076364-94.138182 150.458182-5.12 11.52-4.305455 25.250909-14.545454 34.56-5.12 15.825455-21.876364 20.247273-30.603636 32.465454z m67.374545-158.487272h13.032727c-2.792727 2.56-6.632727 3.258182-13.032727 0z m-173.265455 155.461818c0.232727-4.421818 0.465455-8.843636-0.698181-12.8 2.210909-0.698182 4.421818-0.698182 6.632727 0.698182-1.396364 3.84 0.581818 7.796364 2.676364 11.86909l0.034909 0.081455c3.374545 6.725818 6.900364 13.789091-4.922182 20.514909-4.421818-6.516364-4.072727-13.614545-3.723637-20.363636z" fill="#090903" p-id="17231"></path></svg>